# xmcd
#
# Track frame offsets: 
#        300
#        18526
#        37650
#        54281
#        75563
#        102165
#        120112
#        140155
#        161542
#        178152
#        193718
#        216142
#        230956
#        250532
#        291623
#        309431
#        335963
#
# Disc length: 4650 seconds
#
# Revision: 0
# Processed by: cddbd v1.5.2PL0 Copyright (c) Steve Scherf et al.
# Submitted via: ExactAudioCopy v1.0b1
#
DISCID=f3122611
DTITLE=Albert King - King Albert - New Orleans Heat
DYEAR=2009
DGENRE=Modern Electric Blues
TTITLE0=Love Shock
TTITLE1=You Upset Me Babe
TTITLE2=Chump Change
TTITLE3=Let Me Rock You
TTITLE4=Boot Lace
TTITLE5=Love Mechanic
TTITLE6=Call My Job
TTITLE7=Good Time Charlie
TTITLE8=Get Out Of My Life Woman
TTITLE9=Born Under A Bad Sign
TTITLE10=The Feeling
TTITLE11=We All Wanna Boogie
TTITLE12=The Very Thought Of You
TTITLE13=I Got The Blues
TTITLE14=I Get Evil
TTITLE15=Angel Of Mercy
TTITLE16=Flat Tyre
EXTD=
EXTT0=
EXTT1=
EXTT2=
EXTT3=
EXTT4=
EXTT5=
EXTT6=
EXTT7=
EXTT8=
EXTT9=
EXTT10=
EXTT11=
EXTT12=
EXTT13=
EXTT14=
EXTT15=
EXTT16=
PLAYORDER=
